<?xml version="1.0" encoding="utf-8"?>
<!-- Generator: Adobe Illustrator 18.0.0, SVG Export Plug-In . SVG Version: 6.00 Build 0)  -->
<!DOCTYPE svg PUBLIC "-//W3C//DTD SVG 1.1//EN" "http://www.w3.org/Graphics/SVG/1.1/DTD/svg11.dtd">
<svg version="1.1" id="Layer_1" xmlns="http://www.w3.org/2000/svg" xmlns:xlink="http://www.w3.org/1999/xlink" x="0px" y="0px"
	 viewBox="0 0 275.4 59.3" enable-background="new 0 0 275.4 59.3" xml:space="preserve">
<rect x="-424.4" y="-452.2" fill="none" width="471" height="134"/>
<text transform="matrix(1 0 0 1 -424.4415 -398.9171)" font-family="'Brown-Bold'" font-size="75" letter-spacing="-1">Subhead</text>
<rect x="-373.6" y="-254.8" fill="none" width="311" height="40.7"/>
<text transform="matrix(1 0 0 1 -373.5773 -224.0388)" font-family="'LeituraDisplay-Roman'" font-size="40">Coeffect</text>
<rect x="-366.9" y="-190.8" fill="none" width="311" height="40.7"/>
<text transform="matrix(1 0 0 1 -366.9167 -163.2337)" font-family="'BookmanStd-Medium'" font-size="40">Coeffect</text>
<g>
	<path d="M27,57.4c9,0,13.8-9.7,16.8-15.7h1.1l-0.7,12.7c-3,1.9-9.7,4.5-17.2,4.5c-15.7,0-26.1-11.2-26.1-26.9
		C0.9,16.4,11.3,5.2,27,5.2c7.5,0,14.2,2.6,17.2,4.5l0.7,12.7h-1.1c-3-6-7.8-15.7-16.8-15.7c-8.2,0-13.4,11.2-13.4,25.4
		S18.8,57.4,27,57.4z"/>
	<path d="M68,20.1c11.2,0,19.3,8.7,19.1,19.4c-0.2,10.7-8.7,19.4-19.8,19.4c-11.3,0-19.3-8.7-19-19.4C48.5,28.8,56.8,20.1,68,20.1z
		 M67.7,57.4c4.7,0,6.7-6.7,6.7-17.9c0-11.2-2-17.9-6.7-17.9c-4.7,0-6.7,6.7-6.7,17.9C61,50.7,63,57.4,67.7,57.4z"/>
	<path d="M89.8,39.9c0-12.7,10.4-19.8,19.8-19.8c8.6,0,16.3,3.7,14.1,16.4h-22.1c0,10.1,5.7,13.8,11.3,13.8c6.7,0,9.7-3.7,11.2-6.3
		h0.7c-1.5,7.5-6.7,14.9-16,14.9C96.5,58.9,89.8,50,89.8,39.9z M101.6,35.1h11c1.3-5.1,2.3-13.4-3.4-13.4
		C105,21.6,101.9,25.6,101.6,35.1z"/>
	<path d="M164.9,7.8c0.2,1.4,0.9,5.6,1.7,13.1h7.5v1.5h-7.5v29.5c0,4.9,0,4.9,4.5,4.9v1.5h-20.9v-1.5c4.5,0,4.5,0,4.5-4.9V22.4
		h-11.9v29.5c0,4.9,0,4.9,4.5,4.9v1.5h-20.9v-1.5c4.5,0,4.5,0,4.5-4.9V22.4h-3.7v-1.1l3.7-0.4c2.4-10.1,13.1-20.1,18.7-20.1
		c8.2,0,5.1,11.1-0.7,9c-10.3-3.8-8-7.1-6,11.2h11.9c1.2-4.9,3.9-9.7,7.8-13.5C163.4,6.5,164.7,6.5,164.9,7.8z M166.8,3.6
		c2.4-1.8,5.1-2.8,6.6-2.8c8.2,0,5.1,11.1-0.7,9c-2.5-0.9-4.2-1.8-5.4-2.4C165.6,6.6,165.7,4.4,166.8,3.6z"/>
	<path d="M174.5,39.9c0-12.7,10.4-19.8,19.8-19.8c8.6,0,16.3,3.7,14.1,16.4h-22.1c0,10.1,5.7,13.8,11.3,13.8c6.7,0,9.7-3.7,11.2-6.3
		h0.7c-1.5,7.5-6.7,14.9-16,14.9C181.2,58.9,174.5,50,174.5,39.9z M186.3,35.1h11c1.3-5.1,2.3-13.4-3.4-13.4
		C189.7,21.6,186.6,25.6,186.3,35.1z"/>
	<path d="M234.9,50.4c6.7,0,9.7-3.7,11.2-6.3h0.7c-1.5,7.5-6.7,14.9-16,14.9c-12.3,0-19-9-19-19c0-12.7,10.4-19.8,19.8-19.8
		c9.3,0,14.3,4.6,14.3,9.3c0,2.6-1.2,5.2-5.7,5.2c-3.7,0-4.6-2.3-4.5-3.9c0.4-5.4,0-9.2-4.5-9.2c-5.2,0-7.6,6.9-7.6,15.6
		C223.5,47,229.3,50.4,234.9,50.4z"/>
	<path d="M264.3,48.1c0,4.9,0.7,6.7,4.5,6.7c1.5,0,3.4-0.4,6-1.1v0.7c-3.7,3-9,4.5-12.7,4.5c-5.2,0-9.7-2.6-9.7-9V23.1h-3v-1.9
		l3-0.4l11.2-11.2h0.7v11.2h9v2.2h-9V48.1z"/>
</g>
<rect x="-502.1" y="-150.2" fill="none" width="290.7" height="134"/>
<text transform="matrix(1 0 0 1 -502.1065 -134.547)" font-family="'Brown-Bold'" font-size="22">An Interactive Type Exhibit</text>
</svg>
